<?xml version="1.0" encoding="UTF-8"?>
<svg id="Layer_1" data-name="Layer 1" xmlns="http://www.w3.org/2000/svg" viewBox="0 0 445 515.73">
  <defs>
    <style>
      .cls-1 {
        fill: #fff;
        stroke: #fff;
        stroke-miterlimit: 10;
        stroke-width: 15px;
      }
    </style>
  </defs>
  <path class="cls-1" d="m422.89,123.67L238.22,11.9c-9.7-5.87-21.74-5.87-31.44,0L22.11,123.67c-9.01,5.45-14.61,15.38-14.61,25.9v216.58c0,10.52,5.6,20.44,14.61,25.9l184.67,111.77c4.85,2.94,10.28,4.4,15.72,4.4s10.87-1.47,15.72-4.4l184.67-111.77c9.01-5.45,14.61-15.38,14.61-25.9v-216.58c0-10.52-5.6-20.44-14.61-25.9Zm-395.6,8.54L211.96,20.44c6.5-3.93,14.58-3.93,21.07,0l184.67,111.77c1.64.99,3.1,2.21,4.37,3.58l-199.58,120.8L22.92,135.8c1.27-1.38,2.73-2.59,4.37-3.58Zm0,251.3c-6.04-3.65-9.79-10.31-9.79-17.36v-216.58c0-1.7.22-3.38.64-4.99l199.36,120.67v232.35c-1.92-.49-3.79-1.25-5.54-2.31L27.29,383.51Zm400.21-17.36c0,7.05-3.75,13.7-9.79,17.36l-184.67,111.77c-1.75,1.06-3.62,1.82-5.54,2.31v-232.35l199.36-120.67c.42,1.62.64,3.29.64,4.99v216.58Z"/>
</svg>